<svg xmlns="http://www.w3.org/2000/svg" width="520" height="132" viewBox="0 0 520 132" role="img" aria-label="Additel-BT">
  <defs>
    <linearGradient id="tile" x1="0" y1="0" x2="1" y2="1">
      <stop offset="0" stop-color="#22d3ee"/>
      <stop offset="0.55" stop-color="#3b82f6"/>
      <stop offset="1" stop-color="#6366f1"/>
    </linearGradient>
    <filter id="shadow" x="-20%" y="-20%" width="140%" height="140%">
      <feDropShadow dx="0" dy="6" stdDeviation="7" flood-color="#3b82f6" flood-opacity="0.28"/>
    </filter>
  </defs>

  <!-- icon tile -->
  <rect x="16" y="18" width="96" height="96" rx="26" fill="url(#tile)" filter="url(#shadow)"/>
  <!-- bluetooth glyph -->
  <g transform="translate(37,39) scale(2.25)" fill="#ffffff" fill-rule="evenodd">
    <path d="M17.71,7.71L12,2h-1v7.59L6.41,5L5,6.41L10.59,12L5,17.59L6.41,19L11,14.41V22h1l5.71-5.71l-4.3-4.29L17.71,7.71z M13,5.83l1.88,1.88L13,9.59V5.83z M13,18.17v-3.76l1.88,1.88L13,18.17z"/>
  </g>

  <!-- wordmark -->
  <text x="132" y="62" font-family="-apple-system,'Segoe UI',Roboto,Helvetica,Arial,sans-serif" font-size="46" font-weight="700" letter-spacing="-1">
    <tspan fill="#0f172a">Additel</tspan><tspan fill="#2563eb" font-weight="800">·BT</tspan>
  </text>
  <text x="134" y="92" font-family="-apple-system,'Segoe UI',Roboto,Helvetica,Arial,sans-serif" font-size="15.5" font-weight="500" fill="#64748b">BLE communication toolkit for Additel calibrators</text>
</svg>
